<?xml version="1.0" encoding="UTF-8"?>
<!DOCTYPE svg PUBLIC "-//W3C//DTD SVG 1.1//EN"
    "http://www.w3.org/Graphics/SVG/1.1/DTD/svg11.dtd"><svg stroke="rgb(0,0,0)" xmlns="http://www.w3.org/2000/svg" font-size="1" width="100.0000" stroke-opacity="1" xmlns:xlink="http://www.w3.org/1999/xlink" viewBox="0.0 0.0 100.0 100.0" height="100.0000" version="1.1"><defs></defs><g fill="rgb(0,0,0)" stroke="rgb(139,0,0)" stroke-linecap="butt" stroke-width="0.5" stroke-miterlimit="10.0" fill-opacity="0.0" stroke-opacity="1.0" stroke-linejoin="miter"><path d="M 3.0303,3.0303 v 3.0303 h 3.0303 v -3.0303 l 3.0303,-0.0000 l 3.0303,-0.0000 l 0.0000,3.0303 l -3.0303,0.0000 l 0.0000,3.0303 l 3.0303,-0.0000 l 0.0000,3.0303 l -3.0303,0.0000 l -3.0303,0.0000 v -3.0303 h -3.0303 v 3.0303 v 3.0303 l 3.0303,-0.0000 l 0.0000,3.0303 l -3.0303,0.0000 v 3.0303 v 3.0303 h 3.0303 v -3.0303 h 3.0303 v 3.0303 h 3.0303 v -3.0303 v -3.0303 l -3.0303,0.0000 l -0.0000,-3.0303 l 3.0303,-0.0000 h 3.0303 l 3.0303,-0.0000 l 0.0000,3.0303 l -3.0303,0.0000 v 3.0303 v 3.0303 h 3.0303 v -3.0303 h 3.0303 v 3.0303 h 3.0303 v -3.0303 v -3.0303 l -3.0303,0.0000 l -0.0000,-3.0303 l 3.0303,-0.0000 v -3.0303 v -3.0303 h -3.0303 v 3.0303 l -3.0303,0.0000 l -3.0303,0.0000 l -0.0000,-3.0303 l 3.0303,-0.0000 l -0.0000,-3.0303 l -3.0303,0.0000 l -0.0000,-3.0303 l 3.0303,-0.0000 l 3.0303,-0.0000 v 3.0303 h 3.0303 v -3.0303 l 3.0303,-0.0000 l 3.0303,-0.0000 l 0.0000,3.0303 l -3.0303,0.0000 v 3.0303 v 3.0303 h 3.0303 v -3.0303 h 3.0303 v 3.0303 h 3.0303 v -3.0303 v -3.0303 l -3.0303,0.0000 l -0.0000,-3.0303 l 3.0303,-0.0000 l 3.0303,-0.0000 v 3.0303 h 3.0303 v -3.0303 l 3.0303,-0.0000 l 3.0303,-0.0000 l 0.0000,3.0303 l -3.0303,0.0000 l 0.0000,3.0303 l 3.0303,-0.0000 l 0.0000,3.0303 l -3.0303,0.0000 l -3.0303,0.0000 v -3.0303 h -3.0303 v 3.0303 l 0.0000,3.0303 v 3.0303 h 3.0303 v -3.0303 l 3.0303,-0.0000 l 3.0303,-0.0000 l 0.0000,3.0303 l -3.0303,0.0000 l 0.0000,3.0303 l 3.0303,-0.0000 l 0.0000,3.0303 l -3.0303,0.0000 l -3.0303,0.0000 v -3.0303 h -3.0303 v 3.0303 l -3.0303,0.0000 l -3.0303,0.0000 l -0.0000,-3.0303 l 3.0303,-0.0000 v -3.0303 v -3.0303 h -3.0303 v 3.0303 h -3.0303 v -3.0303 h -3.0303 v 3.0303 v 3.0303 l 3.0303,-0.0000 l 0.0000,3.0303 l -3.0303,0.0000 l 0.0000,3.0303 l 3.0303,-0.0000 l 0.0000,3.0303 l -3.0303,0.0000 v 3.0303 v 3.0303 h 3.0303 v -3.0303 h 3.0303 v 3.0303 h 3.0303 v -3.0303 v -3.0303 l -3.0303,0.0000 l -0.0000,-3.0303 l 3.0303,-0.0000 l 3.0303,-0.0000 v 3.0303 h 3.0303 v -3.0303 l 3.0303,-0.0000 l 3.0303,-0.0000 l 0.0000,3.0303 l -3.0303,0.0000 l 0.0000,3.0303 l 3.0303,-0.0000 l 0.0000,3.0303 l -3.0303,0.0000 l -3.0303,0.0000 v -3.0303 h -3.0303 v 3.0303 l 0.0000,3.0303 v 3.0303 h 3.0303 v -3.0303 l 3.0303,-0.0000 l 3.0303,-0.0000 l 0.0000,3.0303 l -3.0303,0.0000 l 0.0000,3.0303 l 3.0303,-0.0000 l 0.0000,3.0303 l -3.0303,0.0000 l -3.0303,0.0000 v -3.0303 h -3.0303 v 3.0303 l -3.0303,0.0000 l -3.0303,0.0000 l -0.0000,-3.0303 l 3.0303,-0.0000 v -3.0303 v -3.0303 h -3.0303 v 3.0303 h -3.0303 v -3.0303 h -3.0303 v 3.0303 v 3.0303 l 3.0303,-0.0000 l 0.0000,3.0303 l -3.0303,0.0000 l -3.0303,0.0000 v -3.0303 h -3.0303 v 3.0303 l -3.0303,0.0000 l -3.0303,0.0000 l -0.0000,-3.0303 l 3.0303,-0.0000 l -0.0000,-3.0303 l -3.0303,0.0000 l -0.0000,-3.0303 l 3.0303,-0.0000 l 3.0303,-0.0000 v 3.0303 h 3.0303 v -3.0303 v -3.0303 l -3.0303,0.0000 l -0.0000,-3.0303 l 3.0303,-0.0000 v -3.0303 v -3.0303 h -3.0303 v 3.0303 h -3.0303 v -3.0303 h -3.0303 v 3.0303 v 3.0303 l 3.0303,-0.0000 l 0.0000,3.0303 l -3.0303,0.0000 h -3.0303 l -3.0303,0.0000 l -0.0000,-3.0303 l 3.0303,-0.0000 v -3.0303 v -3.0303 h -3.0303 v 3.0303 h -3.0303 v -3.0303 h -3.0303 v 3.0303 v 3.0303 l 3.0303,-0.0000 l 0.0000,3.0303 l -3.0303,0.0000 v 3.0303 v 3.0303 h 3.0303 v -3.0303 l 3.0303,-0.0000 l 3.0303,-0.0000 l 0.0000,3.0303 l -3.0303,0.0000 l 0.0000,3.0303 l 3.0303,-0.0000 l 0.0000,3.0303 l -3.0303,0.0000 l -3.0303,0.0000 v -3.0303 h -3.0303 v 3.0303 v 3.0303 l 3.0303,-0.0000 l 0.0000,3.0303 l -3.0303,0.0000 v 3.0303 v 3.0303 h 3.0303 v -3.0303 h 3.0303 v 3.0303 h 3.0303 v -3.0303 v -3.0303 l -3.0303,0.0000 l -0.0000,-3.0303 l 3.0303,-0.0000 l 3.0303,-0.0000 v 3.0303 h 3.0303 v -3.0303 l 3.0303,-0.0000 l 3.0303,-0.0000 l 0.0000,3.0303 l -3.0303,0.0000 l 0.0000,3.0303 l 3.0303,-0.0000 l 0.0000,3.0303 l -3.0303,0.0000 l -3.0303,0.0000 v -3.0303 h -3.0303 v 3.0303 l 0.0000,3.0303 v 3.0303 h 3.0303 v -3.0303 l 3.0303,-0.0000 l 3.0303,-0.0000 l 0.0000,3.0303 l -3.0303,0.0000 l 0.0000,3.0303 l 3.0303,-0.0000 l 0.0000,3.0303 l -3.0303,0.0000 l -3.0303,0.0000 v -3.0303 h -3.0303 v 3.0303 l -3.0303,0.0000 l -3.0303,0.0000 l -0.0000,-3.0303 l 3.0303,-0.0000 v -3.0303 v -3.0303 h -3.0303 v 3.0303 h -3.0303 v -3.0303 h -3.0303 v 3.0303 v 3.0303 l 3.0303,-0.0000 l 0.0000,3.0303 l -3.0303,0.0000 v 3.0303 v 3.0303 h 3.0303 v -3.0303 l 3.0303,-0.0000 l 3.0303,-0.0000 l 0.0000,3.0303 l -3.0303,0.0000 l 0.0000,3.0303 l 3.0303,-0.0000 l 0.0000,3.0303 l -3.0303,0.0000 l -3.0303,0.0000 v -3.0303 h -3.0303 v 3.0303 v 3.0303 l 3.0303,-0.0000 l 0.0000,3.0303 l -3.0303,0.0000 v 3.0303 v 3.0303 h 3.0303 v -3.0303 h 3.0303 v 3.0303 h 3.0303 v -3.0303 v -3.0303 l -3.0303,0.0000 l -0.0000,-3.0303 l 3.0303,-0.0000 h 3.0303 l 3.0303,-0.0000 l 0.0000,3.0303 l -3.0303,0.0000 v 3.0303 v 3.0303 h 3.0303 v -3.0303 h 3.0303 v 3.0303 h 3.0303 v -3.0303 v -3.0303 l -3.0303,0.0000 l -0.0000,-3.0303 l 3.0303,-0.0000 v -3.0303 v -3.0303 h -3.0303 v 3.0303 l -3.0303,0.0000 l -3.0303,0.0000 l -0.0000,-3.0303 l 3.0303,-0.0000 l -0.0000,-3.0303 l -3.0303,0.0000 l -0.0000,-3.0303 l 3.0303,-0.0000 l 3.0303,-0.0000 v 3.0303 h 3.0303 v -3.0303 h 3.0303 v 3.0303 h 3.0303 v -3.0303 l 3.0303,-0.0000 l 3.0303,-0.0000 l 0.0000,3.0303 l -3.0303,0.0000 l 0.0000,3.0303 l 3.0303,-0.0000 l 0.0000,3.0303 l -3.0303,0.0000 l -3.0303,0.0000 v -3.0303 h -3.0303 v 3.0303 v 3.0303 l 3.0303,-0.0000 l 0.0000,3.0303 l -3.0303,0.0000 v 3.0303 v 3.0303 h 3.0303 v -3.0303 h 3.0303 v 3.0303 h 3.0303 v -3.0303 v -3.0303 l -3.0303,0.0000 l -0.0000,-3.0303 l 3.0303,-0.0000 h 3.0303 l 3.0303,-0.0000 l 0.0000,3.0303 l -3.0303,0.0000 v 3.0303 v 3.0303 h 3.0303 v -3.0303 h 3.0303 v 3.0303 h 3.0303 v -3.0303 v -3.0303 l -3.0303,0.0000 l -0.0000,-3.0303 l 3.0303,-0.0000 v -3.0303 v -3.0303 h -3.0303 v 3.0303 l -3.0303,0.0000 l -3.0303,0.0000 l -0.0000,-3.0303 l 3.0303,-0.0000 l -0.0000,-3.0303 l -3.0303,0.0000 l -0.0000,-3.0303 l 3.0303,-0.0000 l 3.0303,-0.0000 v 3.0303 h 3.0303 v -3.0303 v -3.0303 l -3.0303,0.0000 l -0.0000,-3.0303 l 3.0303,-0.0000 v -3.0303 v -3.0303 h -3.0303 v 3.0303 h -3.0303 v -3.0303 h -3.0303 v 3.0303 v 3.0303 l 3.0303,-0.0000 l 0.0000,3.0303 l -3.0303,0.0000 l -3.0303,0.0000 v -3.0303 h -3.0303 v 3.0303 l -3.0303,0.0000 l -3.0303,0.0000 l -0.0000,-3.0303 l 3.0303,-0.0000 l -0.0000,-3.0303 l -3.0303,0.0000 l -0.0000,-3.0303 l 3.0303,-0.0000 l 3.0303,-0.0000 v 3.0303 h 3.0303 v -3.0303 l -0.0000,-3.0303 v -3.0303 h -3.0303 v 3.0303 l -3.0303,0.0000 l -3.0303,0.0000 l -0.0000,-3.0303 l 3.0303,-0.0000 l -0.0000,-3.0303 l -3.0303,0.0000 l -0.0000,-3.0303 l 3.0303,-0.0000 l 3.0303,-0.0000 v 3.0303 h 3.0303 v -3.0303 l 3.0303,-0.0000 l 3.0303,-0.0000 l 0.0000,3.0303 l -3.0303,0.0000 v 3.0303 v 3.0303 h 3.0303 v -3.0303 h 3.0303 v 3.0303 h 3.0303 v -3.0303 v -3.0303 l -3.0303,0.0000 l -0.0000,-3.0303 l 3.0303,-0.0000 h 3.0303 l 3.0303,-0.0000 l 0.0000,3.0303 l -3.0303,0.0000 v 3.0303 v 3.0303 h 3.0303 v -3.0303 h 3.0303 v 3.0303 h 3.0303 v -3.0303 v -3.0303 l -3.0303,0.0000 l -0.0000,-3.0303 l 3.0303,-0.0000 l 3.0303,-0.0000 v 3.0303 h 3.0303 v -3.0303 l 3.0303,-0.0000 l 3.0303,-0.0000 l 0.0000,3.0303 l -3.0303,0.0000 l 0.0000,3.0303 l 3.0303,-0.0000 l 0.0000,3.0303 l -3.0303,0.0000 l -3.0303,0.0000 v -3.0303 h -3.0303 v 3.0303 l 0.0000,3.0303 v 3.0303 h 3.0303 v -3.0303 l 3.0303,-0.0000 l 3.0303,-0.0000 l 0.0000,3.0303 l -3.0303,0.0000 l 0.0000,3.0303 l 3.0303,-0.0000 l 0.0000,3.0303 l -3.0303,0.0000 l -3.0303,0.0000 v -3.0303 h -3.0303 v 3.0303 l -3.0303,0.0000 l -3.0303,0.0000 l -0.0000,-3.0303 l 3.0303,-0.0000 v -3.0303 v -3.0303 h -3.0303 v 3.0303 h -3.0303 v -3.0303 h -3.0303 v 3.0303 v 3.0303 l 3.0303,-0.0000 l 0.0000,3.0303 l -3.0303,0.0000 v 3.0303 v 3.0303 h 3.0303 v -3.0303 l 3.0303,-0.0000 l 3.0303,-0.0000 l 0.0000,3.0303 l -3.0303,0.0000 l 0.0000,3.0303 l 3.0303,-0.0000 l 0.0000,3.0303 l -3.0303,0.0000 l -3.0303,0.0000 v -3.0303 h -3.0303 v 3.0303 v 3.0303 l 3.0303,-0.0000 l 0.0000,3.0303 l -3.0303,0.0000 v 3.0303 v 3.0303 h 3.0303 v -3.0303 h 3.0303 v 3.0303 h 3.0303 v -3.0303 v -3.0303 l -3.0303,0.0000 l -0.0000,-3.0303 l 3.0303,-0.0000 h 3.0303 l 3.0303,-0.0000 l 0.0000,3.0303 l -3.0303,0.0000 v 3.0303 v 3.0303 h 3.0303 v -3.0303 h 3.0303 v 3.0303 h 3.0303 v -3.0303 v -3.0303 l -3.0303,0.0000 l -0.0000,-3.0303 l 3.0303,-0.0000 v -3.0303 v -3.0303 h -3.0303 v 3.0303 l -3.0303,0.0000 l -3.0303,0.0000 l -0.0000,-3.0303 l 3.0303,-0.0000 l -0.0000,-3.0303 l -3.0303,0.0000 l -0.0000,-3.0303 l 3.0303,-0.0000 l 3.0303,-0.0000 v 3.0303 h 3.0303 v -3.0303 h 3.0303 v 3.0303 h 3.0303 v -3.0303 l 3.0303,-0.0000 l 3.0303,-0.0000 l 0.0000,3.0303 l -3.0303,0.0000 l 0.0000,3.0303 l 3.0303,-0.0000 l 0.0000,3.0303 l -3.0303,0.0000 l -3.0303,0.0000 v -3.0303 h -3.0303 v 3.0303 v 3.0303 l 3.0303,-0.0000 l 0.0000,3.0303 l -3.0303,0.0000 v 3.0303 v 3.0303 h 3.0303 v -3.0303 h 3.0303 v 3.0303 h 3.0303 v -3.0303 v -3.0303 l -3.0303,0.0000 l -0.0000,-3.0303 l 3.0303,-0.0000 h 3.0303 l 3.0303,-0.0000 l 0.0000,3.0303 l -3.0303,0.0000 v 3.0303 v 3.0303 h 3.0303 v -3.0303 h 3.0303 v 3.0303 h 3.0303 v -3.0303 v -3.0303 l -3.0303,0.0000 l -0.0000,-3.0303 l 3.0303,-0.0000 v -3.0303 v -3.0303 h -3.0303 v 3.0303 l -3.0303,0.0000 l -3.0303,0.0000 l -0.0000,-3.0303 l 3.0303,-0.0000 l -0.0000,-3.0303 l -3.0303,0.0000 l -0.0000,-3.0303 l 3.0303,-0.0000 l 3.0303,-0.0000 v 3.0303 h 3.0303 v -3.0303 v -3.0303 l -3.0303,0.0000 l -0.0000,-3.0303 l 3.0303,-0.0000 v -3.0303 v -3.0303 h -3.0303 v 3.0303 h -3.0303 v -3.0303 h -3.0303 v 3.0303 v 3.0303 l 3.0303,-0.0000 l 0.0000,3.0303 l -3.0303,0.0000 l -3.0303,0.0000 v -3.0303 h -3.0303 v 3.0303 l -3.0303,0.0000 l -3.0303,0.0000 l -0.0000,-3.0303 l 3.0303,-0.0000 l -0.0000,-3.0303 l -3.0303,0.0000 l -0.0000,-3.0303 l 3.0303,-0.0000 l 3.0303,-0.0000 v 3.0303 h 3.0303 v -3.0303 l -0.0000,-3.0303 v -3.0303 h -3.0303 v 3.0303 l -3.0303,0.0000 l -3.0303,0.0000 l -0.0000,-3.0303 l 3.0303,-0.0000 l -0.0000,-3.0303 l -3.0303,0.0000 l -0.0000,-3.0303 l 3.0303,-0.0000 l 3.0303,-0.0000 v 3.0303 h 3.0303 v -3.0303 l 3.0303,-0.0000 l 3.0303,-0.0000 l 0.0000,3.0303 l -3.0303,0.0000 v 3.0303 v 3.0303 h 3.0303 v -3.0303 h 3.0303 v 3.0303 h 3.0303 v -3.0303 v -3.0303 l -3.0303,0.0000 l -0.0000,-3.0303 l 3.0303,-0.0000 v -3.0303 v -3.0303 h -3.0303 v 3.0303 l -3.0303,0.0000 l -3.0303,0.0000 l -0.0000,-3.0303 l 3.0303,-0.0000 l -0.0000,-3.0303 l -3.0303,0.0000 l -0.0000,-3.0303 l 3.0303,-0.0000 l 3.0303,-0.0000 v 3.0303 h 3.0303 v -3.0303 v -3.0303 l -3.0303,0.0000 l -0.0000,-3.0303 l 3.0303,-0.0000 v -3.0303 v -3.0303 h -3.0303 v 3.0303 h -3.0303 v -3.0303 h -3.0303 v 3.0303 v 3.0303 l 3.0303,-0.0000 l 0.0000,3.0303 l -3.0303,0.0000 h -3.0303 l -3.0303,0.0000 l -0.0000,-3.0303 l 3.0303,-0.0000 v -3.0303 v -3.0303 h -3.0303 v 3.0303 h -3.0303 v -3.0303 h -3.0303 v 3.0303 v 3.0303 l 3.0303,-0.0000 l 0.0000,3.0303 l -3.0303,0.0000 v 3.0303 v 3.0303 h 3.0303 v -3.0303 l 3.0303,-0.0000 l 3.0303,-0.0000 l 0.0000,3.0303 l -3.0303,0.0000 l 0.0000,3.0303 l 3.0303,-0.0000 l 0.0000,3.0303 l -3.0303,0.0000 l -3.0303,0.0000 v -3.0303 h -3.0303 v 3.0303 l -3.0303,0.0000 l -3.0303,0.0000 l -0.0000,-3.0303 l 3.0303,-0.0000 v -3.0303 v -3.0303 h -3.0303 v 3.0303 h -3.0303 v -3.0303 h -3.0303 v 3.0303 v 3.0303 l 3.0303,-0.0000 l 0.0000,3.0303 l -3.0303,0.0000 l -3.0303,0.0000 v -3.0303 h -3.0303 v 3.0303 l -3.0303,0.0000 l -3.0303,0.0000 l -0.0000,-3.0303 l 3.0303,-0.0000 l -0.0000,-3.0303 l -3.0303,0.0000 l -0.0000,-3.0303 l 3.0303,-0.0000 l 3.0303,-0.0000 v 3.0303 h 3.0303 v -3.0303 l -0.0000,-3.0303 v -3.0303 h -3.0303 v 3.0303 l -3.0303,0.0000 l -3.0303,0.0000 l -0.0000,-3.0303 l 3.0303,-0.0000 l -0.0000,-3.0303 l -3.0303,0.0000 l -0.0000,-3.0303 l 3.0303,-0.0000 l 3.0303,-0.0000 v 3.0303 h 3.0303 v -3.0303 l 3.0303,-0.0000 l 3.0303,-0.0000 l 0.0000,3.0303 l -3.0303,0.0000 v 3.0303 v 3.0303 h 3.0303 v -3.0303 h 3.0303 v 3.0303 h 3.0303 v -3.0303 v -3.0303 l -3.0303,0.0000 l -0.0000,-3.0303 l 3.0303,-0.0000 l -0.0000,-3.0303 l -3.0303,0.0000 l -0.0000,-3.0303 l 3.0303,-0.0000 v -3.0303 v -3.0303 h -3.0303 v 3.0303 h -3.0303 v -3.0303 h -3.0303 v 3.0303 v 3.0303 l 3.0303,-0.0000 l 0.0000,3.0303 l -3.0303,0.0000 l -3.0303,0.0000 v -3.0303 h -3.0303 v 3.0303 l -3.0303,0.0000 l -3.0303,0.0000 l -0.0000,-3.0303 l 3.0303,-0.0000 l -0.0000,-3.0303 l -3.0303,0.0000 l -0.0000,-3.0303 l 3.0303,-0.0000 l 3.0303,-0.0000 v 3.0303 h 3.0303 v -3.0303 l -0.0000,-3.0303 v -3.0303 h -3.0303 v 3.0303 l -3.0303,0.0000 l -3.0303,0.0000 l -0.0000,-3.0303 l 3.0303,-0.0000 l -0.0000,-3.0303 l -3.0303,0.0000 l -0.0000,-3.0303 l 3.0303,-0.0000 l 3.0303,-0.0000 v 3.0303 h 3.0303 v -3.0303 l 3.0303,-0.0000 l 3.0303,-0.0000 l 0.0000,3.0303 l -3.0303,0.0000 v 3.0303 v 3.0303 h 3.0303 v -3.0303 h 3.0303 v 3.0303 h 3.0303 v -3.0303 v -3.0303 l -3.0303,0.0000 l -0.0000,-3.0303 l 3.0303,-0.0000 l 3.0303,-0.0000 v 3.0303 h 3.0303 v -3.0303 l 3.0303,-0.0000 l 3.0303,-0.0000 l 0.0000,3.0303 l -3.0303,0.0000 l 0.0000,3.0303 l 3.0303,-0.0000 l 0.0000,3.0303 l -3.0303,0.0000 l -3.0303,0.0000 v -3.0303 h -3.0303 v 3.0303 v 3.0303 l 3.0303,-0.0000 l 0.0000,3.0303 l -3.0303,0.0000 v 3.0303 v 3.0303 h 3.0303 v -3.0303 h 3.0303 v 3.0303 h 3.0303 v -3.0303 v -3.0303 l -3.0303,0.0000 l -0.0000,-3.0303 l 3.0303,-0.0000 h 3.0303 l 3.0303,-0.0000 l 0.0000,3.0303 l -3.0303,0.0000 v 3.0303 v 3.0303 h 3.0303 v -3.0303 h 3.0303 v 3.0303 h 3.0303 v -3.0303 v -3.0303 l -3.0303,0.0000 l -0.0000,-3.0303 l 3.0303,-0.0000 v -3.0303 v -3.0303 h -3.0303 v 3.0303 l -3.0303,0.0000 l -3.0303,0.0000 l -0.0000,-3.0303 l 3.0303,-0.0000 l -0.0000,-3.0303 l -3.0303,0.0000 l -0.0000,-3.0303 l 3.0303,-0.0000 l 3.0303,-0.0000 v 3.0303 h 3.0303 v -3.0303 "/></g></svg>